{
    "patcher": {
        "fileversion": 1,
        "appversion": {
            "major": 9,
            "minor": 1,
            "revision": 0,
            "architecture": "x64",
            "modernui": 1
        },
        "classnamespace": "box",
        "rect": [ 100.0, 100.0, 502.0, 522.0 ],
        "showrootpatcherontab": 0,
        "showontab": 0,
        "boxes": [
            {
                "box": {
                    "id": "obj-1",
                    "maxclass": "newobj",
                    "numinlets": 0,
                    "numoutlets": 0,
                    "patcher": {
                        "fileversion": 1,
                        "appversion": {
                            "major": 9,
                            "minor": 1,
                            "revision": 0,
                            "architecture": "x64",
                            "modernui": 1
                        },
                        "classnamespace": "box",
                        "rect": [ 100.0, 126.0, 502.0, 496.0 ],
                        "showontab": 1,
                        "boxes": [
                            {
                                "box": {
                                    "id": "obj-10",
                                    "maxclass": "newobj",
                                    "numinlets": 1,
                                    "numoutlets": 2,
                                    "outlettype": [ "jit_matrix", "" ],
                                    "patching_rect": [ 210.0, 255.0, 141.0, 22.0 ],
                                    "text": "jit.scanwrap 1 float32 8 8"
                                }
                            },
                            {
                                "box": {
                                    "id": "obj-3",
                                    "maxclass": "newobj",
                                    "numinlets": 6,
                                    "numoutlets": 1,
                                    "outlettype": [ "multichannelsignal" ],
                                    "patching_rect": [ 30.0, 301.5, 107.0, 22.0 ],
                                    "text": "mc.scale~ -1 1 0 1"
                                }
                            },
                            {
                                "box": {
                                    "id": "obj-14",
                                    "maxclass": "message",
                                    "numinlets": 2,
                                    "numoutlets": 1,
                                    "outlettype": [ "" ],
                                    "patching_rect": [ 30.0, 210.0, 35.0, 22.0 ],
                                    "text": "reset"
                                }
                            },
                            {
                                "box": {
                                    "id": "obj-8",
                                    "maxclass": "newobj",
                                    "numinlets": 1,
                                    "numoutlets": 4,
                                    "outlettype": [ "int", "float", "int", "int" ],
                                    "patching_rect": [ 30.0, 165.0, 61.0, 22.0 ],
                                    "text": "dspstate~"
                                }
                            },
                            {
                                "box": {
                                    "id": "obj-7",
                                    "maxclass": "jit.pwindow",
                                    "numinlets": 1,
                                    "numoutlets": 2,
                                    "outlettype": [ "jit_matrix", "" ],
                                    "patching_rect": [ 210.0, 301.5, 225.0, 153.5 ],
                                    "sync": 1
                                }
                            },
                            {
                                "box": {
                                    "id": "obj-6",
                                    "maxclass": "newobj",
                                    "numinlets": 2,
                                    "numoutlets": 1,
                                    "outlettype": [ "bang" ],
                                    "patching_rect": [ 210.0, 165.0, 119.0, 22.0 ],
                                    "text": "qmetro 33 @active 1"
                                }
                            },
                            {
                                "box": {
                                    "id": "obj-5",
                                    "maxclass": "newobj",
                                    "numinlets": 1,
                                    "numoutlets": 2,
                                    "outlettype": [ "jit_matrix", "" ],
                                    "patching_rect": [ 210.0, 210.0, 100.0, 22.0 ],
                                    "text": "jit.matrix sines2D"
                                }
                            },
                            {
                                "box": {
                                    "id": "obj-4",
                                    "maxclass": "message",
                                    "numinlets": 2,
                                    "numoutlets": 1,
                                    "outlettype": [ "" ],
                                    "patching_rect": [ 76.5, 210.0, 108.0, 22.0 ],
                                    "text": "harmonic 1 0.0625"
                                }
                            },
                            {
                                "box": {
                                    "id": "obj-2",
                                    "maxclass": "newobj",
                                    "numinlets": 2,
                                    "numoutlets": 1,
                                    "outlettype": [ "multichannelsignal" ],
                                    "patching_rect": [ 30.0, 255.0, 126.0, 22.0 ],
                                    "text": "mc.cycle~ @chans 64"
                                }
                            },
                            {
                                "box": {
                                    "color": [ 0.952941, 0.564706, 0.098039, 1.0 ],
                                    "id": "obj-1",
                                    "maxclass": "newobj",
                                    "numinlets": 1,
                                    "numoutlets": 0,
                                    "patching_rect": [ 30.0, 433.0, 137.0, 22.0 ],
                                    "text": "th.mcToMatrix~ sines2D"
                                }
                            },
                            {
                                "box": {
                                    "id": "obj-88",
                                    "maxclass": "comment",
                                    "numinlets": 1,
                                    "numoutlets": 0,
                                    "patching_rect": [ 30.0, 83.0, 405.0, 20.0 ],
                                    "text": "Use jit.scanwrap to wrap the matrix to 2-dimensional",
                                    "textcolor": [ 0.32548999786377, 0.345097988843918, 0.372548997402191, 1.0 ]
                                }
                            },
                            {
                                "box": {
                                    "fontface": 0,
                                    "fontname": "Arial",
                                    "fontsize": 40.0,
                                    "id": "obj-22",
                                    "maxclass": "comment",
                                    "numinlets": 1,
                                    "numoutlets": 0,
                                    "patching_rect": [ 30.0, 30.0, 405.0, 51.0 ],
                                    "text": "th.mcToMatrix~",
                                    "textcolor": [ 0.23921599984169, 0.254902005195618, 0.278430998325348, 1.0 ]
                                }
                            }
                        ],
                        "lines": [
                            {
                                "patchline": {
                                    "destination": [ "obj-7", 0 ],
                                    "source": [ "obj-10", 0 ]
                                }
                            },
                            {
                                "patchline": {
                                    "destination": [ "obj-2", 0 ],
                                    "source": [ "obj-14", 0 ]
                                }
                            },
                            {
                                "patchline": {
                                    "destination": [ "obj-3", 0 ],
                                    "source": [ "obj-2", 0 ]
                                }
                            },
                            {
                                "patchline": {
                                    "destination": [ "obj-1", 0 ],
                                    "source": [ "obj-3", 0 ]
                                }
                            },
                            {
                                "patchline": {
                                    "destination": [ "obj-2", 0 ],
                                    "source": [ "obj-4", 0 ]
                                }
                            },
                            {
                                "patchline": {
                                    "destination": [ "obj-10", 0 ],
                                    "source": [ "obj-5", 0 ]
                                }
                            },
                            {
                                "patchline": {
                                    "destination": [ "obj-5", 0 ],
                                    "source": [ "obj-6", 0 ]
                                }
                            },
                            {
                                "patchline": {
                                    "destination": [ "obj-14", 0 ],
                                    "order": 1,
                                    "source": [ "obj-8", 0 ]
                                }
                            },
                            {
                                "patchline": {
                                    "destination": [ "obj-4", 0 ],
                                    "order": 0,
                                    "source": [ "obj-8", 0 ]
                                }
                            }
                        ],
                        "toolbaradditions": [ "audiomute", "audiosolo", "packagemanager" ]
                    },
                    "patching_rect": [ 67.0, 217.0, 34.0, 22.0 ],
                    "text": "p 2D"
                }
            },
            {
                "box": {
                    "id": "obj-6",
                    "maxclass": "newobj",
                    "numinlets": 0,
                    "numoutlets": 0,
                    "patcher": {
                        "fileversion": 1,
                        "appversion": {
                            "major": 9,
                            "minor": 1,
                            "revision": 0,
                            "architecture": "x64",
                            "modernui": 1
                        },
                        "classnamespace": "box",
                        "rect": [ 0.0, 26.0, 502.0, 496.0 ],
                        "showontab": 1,
                        "boxes": [],
                        "lines": [],
                        "toolbaradditions": [ "audiomute", "audiosolo", "packagemanager" ]
                    },
                    "patching_rect": [ 88.0, 270.0, 25.0, 22.0 ],
                    "text": "p ?"
                }
            },
            {
                "box": {
                    "id": "obj-5",
                    "maxclass": "newobj",
                    "numinlets": 0,
                    "numoutlets": 0,
                    "patcher": {
                        "fileversion": 1,
                        "appversion": {
                            "major": 9,
                            "minor": 1,
                            "revision": 0,
                            "architecture": "x64",
                            "modernui": 1
                        },
                        "classnamespace": "box",
                        "rect": [ 0.0, 26.0, 502.0, 496.0 ],
                        "showontab": 1,
                        "boxes": [
                            {
                                "box": {
                                    "fontface": 1,
                                    "id": "obj-12",
                                    "linecount": 2,
                                    "maxclass": "comment",
                                    "numinlets": 1,
                                    "numoutlets": 0,
                                    "patching_rect": [ 49.0, 398.0, 103.0, 33.0 ],
                                    "text": "arguments:\n<matrix_name>"
                                }
                            },
                            {
                                "box": {
                                    "id": "obj-3",
                                    "maxclass": "newobj",
                                    "numinlets": 6,
                                    "numoutlets": 1,
                                    "outlettype": [ "multichannelsignal" ],
                                    "patching_rect": [ 30.0, 315.0, 107.0, 22.0 ],
                                    "text": "mc.scale~ -1 1 0 1"
                                }
                            },
                            {
                                "box": {
                                    "id": "obj-15",
                                    "maxclass": "comment",
                                    "numinlets": 1,
                                    "numoutlets": 0,
                                    "patching_rect": [ 390.0, 195.0, 60.0, 20.0 ],
                                    "text": "turn on!"
                                }
                            },
                            {
                                "box": {
                                    "id": "obj-14",
                                    "maxclass": "message",
                                    "numinlets": 2,
                                    "numoutlets": 1,
                                    "outlettype": [ "" ],
                                    "patching_rect": [ 30.0, 240.0, 35.0, 22.0 ],
                                    "text": "reset"
                                }
                            },
                            {
                                "box": {
                                    "id": "obj-11",
                                    "linecount": 2,
                                    "maxclass": "comment",
                                    "numinlets": 1,
                                    "numoutlets": 0,
                                    "patching_rect": [ 49.0, 339.0, 120.0, 33.0 ],
                                    "text": "input a multichannel signal"
                                }
                            },
                            {
                                "box": {
                                    "id": "obj-9",
                                    "maxclass": "ezdac~",
                                    "numinlets": 2,
                                    "numoutlets": 0,
                                    "patching_rect": [ 390.0, 217.0, 45.0, 45.0 ]
                                }
                            },
                            {
                                "box": {
                                    "id": "obj-8",
                                    "maxclass": "newobj",
                                    "numinlets": 1,
                                    "numoutlets": 4,
                                    "outlettype": [ "int", "float", "int", "int" ],
                                    "patching_rect": [ 30.0, 195.0, 61.0, 22.0 ],
                                    "text": "dspstate~"
                                }
                            },
                            {
                                "box": {
                                    "id": "obj-7",
                                    "maxclass": "jit.pwindow",
                                    "numinlets": 1,
                                    "numoutlets": 2,
                                    "outlettype": [ "jit_matrix", "" ],
                                    "patching_rect": [ 210.0, 301.5, 225.0, 153.5 ],
                                    "sync": 1
                                }
                            },
                            {
                                "box": {
                                    "id": "obj-6",
                                    "maxclass": "newobj",
                                    "numinlets": 2,
                                    "numoutlets": 1,
                                    "outlettype": [ "bang" ],
                                    "patching_rect": [ 210.0, 195.0, 119.0, 22.0 ],
                                    "text": "qmetro 33 @active 1"
                                }
                            },
                            {
                                "box": {
                                    "id": "obj-5",
                                    "maxclass": "newobj",
                                    "numinlets": 1,
                                    "numoutlets": 2,
                                    "outlettype": [ "jit_matrix", "" ],
                                    "patching_rect": [ 210.0, 240.0, 85.0, 22.0 ],
                                    "text": "jit.matrix sines"
                                }
                            },
                            {
                                "box": {
                                    "id": "obj-4",
                                    "maxclass": "message",
                                    "numinlets": 2,
                                    "numoutlets": 1,
                                    "outlettype": [ "" ],
                                    "patching_rect": [ 76.5, 240.0, 101.0, 22.0 ],
                                    "text": "harmonic 1 0.125"
                                }
                            },
                            {
                                "box": {
                                    "id": "obj-2",
                                    "maxclass": "newobj",
                                    "numinlets": 2,
                                    "numoutlets": 1,
                                    "outlettype": [ "multichannelsignal" ],
                                    "patching_rect": [ 30.0, 285.0, 126.0, 22.0 ],
                                    "text": "mc.cycle~ @chans 16"
                                }
                            },
                            {
                                "box": {
                                    "color": [ 0.952941, 0.564706, 0.098039, 1.0 ],
                                    "id": "obj-1",
                                    "maxclass": "newobj",
                                    "numinlets": 1,
                                    "numoutlets": 0,
                                    "patching_rect": [ 30.0, 433.0, 122.0, 22.0 ],
                                    "text": "th.mcToMatrix~ sines"
                                }
                            },
                            {
                                "box": {
                                    "fontface": 1,
                                    "fontsize": 12.0,
                                    "id": "obj-21",
                                    "maxclass": "comment",
                                    "numinlets": 1,
                                    "numoutlets": 0,
                                    "patching_rect": [ 30.0, 83.0, 405.0, 20.0 ],
                                    "text": "written by Timo Hoogland © 2019-2025, www.timohoogland.com"
                                }
                            },
                            {
                                "box": {
                                    "id": "obj-88",
                                    "linecount": 5,
                                    "maxclass": "comment",
                                    "numinlets": 1,
                                    "numoutlets": 0,
                                    "patching_rect": [ 30.0, 105.0, 408.0, 74.0 ],
                                    "text": "Input a multichannel signal of any channelcount and write those to a 1-dimensional jit.matrix of the same channel count using jit.poke~. Expects one argument, the name of the jit.matrix to write to. This matrix has to be initialized first. The matrix is 1 plane, type float32 and the dimension is adapted to the channelcount.",
                                    "textcolor": [ 0.32548999786377, 0.345097988843918, 0.372548997402191, 1.0 ]
                                }
                            },
                            {
                                "box": {
                                    "fontface": 0,
                                    "fontname": "Arial",
                                    "fontsize": 40.0,
                                    "id": "obj-22",
                                    "maxclass": "comment",
                                    "numinlets": 1,
                                    "numoutlets": 0,
                                    "patching_rect": [ 30.0, 30.0, 405.0, 51.0 ],
                                    "text": "th.mcToMatrix~",
                                    "textcolor": [ 0.23921599984169, 0.254902005195618, 0.278430998325348, 1.0 ]
                                }
                            }
                        ],
                        "lines": [
                            {
                                "patchline": {
                                    "destination": [ "obj-2", 0 ],
                                    "source": [ "obj-14", 0 ]
                                }
                            },
                            {
                                "patchline": {
                                    "destination": [ "obj-3", 0 ],
                                    "source": [ "obj-2", 0 ]
                                }
                            },
                            {
                                "patchline": {
                                    "destination": [ "obj-1", 0 ],
                                    "source": [ "obj-3", 0 ]
                                }
                            },
                            {
                                "patchline": {
                                    "destination": [ "obj-2", 0 ],
                                    "source": [ "obj-4", 0 ]
                                }
                            },
                            {
                                "patchline": {
                                    "destination": [ "obj-7", 0 ],
                                    "source": [ "obj-5", 0 ]
                                }
                            },
                            {
                                "patchline": {
                                    "destination": [ "obj-5", 0 ],
                                    "source": [ "obj-6", 0 ]
                                }
                            },
                            {
                                "patchline": {
                                    "destination": [ "obj-14", 0 ],
                                    "order": 1,
                                    "source": [ "obj-8", 0 ]
                                }
                            },
                            {
                                "patchline": {
                                    "destination": [ "obj-4", 0 ],
                                    "order": 0,
                                    "source": [ "obj-8", 0 ]
                                }
                            }
                        ],
                        "toolbaradditions": [ "audiomute", "audiosolo", "packagemanager" ]
                    },
                    "patching_rect": [ 30.0, 165.0, 47.0, 22.0 ],
                    "text": "p basic"
                }
            },
            {
                "box": {
                    "fontface": 1,
                    "fontsize": 12.0,
                    "id": "obj-21",
                    "maxclass": "comment",
                    "numinlets": 1,
                    "numoutlets": 0,
                    "patching_rect": [ 30.0, 83.0, 585.0, 20.0 ],
                    "text": "written by Timo Hoogland © 2019, www.timohoogland.com"
                }
            },
            {
                "box": {
                    "id": "obj-88",
                    "maxclass": "comment",
                    "numinlets": 1,
                    "numoutlets": 0,
                    "patching_rect": [ 30.0, 105.0, 587.0, 20.0 ],
                    "textcolor": [ 0.32548999786377, 0.345097988843918, 0.372548997402191, 1.0 ]
                }
            },
            {
                "box": {
                    "fontface": 0,
                    "fontname": "Arial",
                    "fontsize": 40.0,
                    "id": "obj-22",
                    "maxclass": "comment",
                    "numinlets": 1,
                    "numoutlets": 0,
                    "patching_rect": [ 30.0, 30.0, 585.0, 51.0 ],
                    "text": "th.mcToMatrix~",
                    "textcolor": [ 0.23921599984169, 0.254902005195618, 0.278430998325348, 1.0 ]
                }
            }
        ],
        "lines": [],
        "autosave": 0,
        "toolbaradditions": [ "audiomute", "audiosolo", "packagemanager" ]
    }
}